<svg width="58" height="58" viewBox="0 0 58 58" fill="none" xmlns="http://www.w3.org/2000/svg">
<g clip-path="url(#clip0_74_6)">
<rect width="58" height="58" rx="3" fill="#6E442E"/>
<mask id="mask0_74_6" style="mask-type:alpha" maskUnits="userSpaceOnUse" x="0" y="0" width="58" height="58">
<rect width="58" height="58" rx="3" fill="#6E442E"/>
</mask>
<g mask="url(#mask0_74_6)">
<path d="M17.7663 37.5648H22.9743V59.2258C22.9743 59.6535 23.3173 60 23.7406 60H32.5709C32.9942 60 33.3372 59.6535 33.3372 59.2258V37.6668H39.3242C39.7135 37.6668 40.041 37.3717 40.0855 36.9811L40.9948 29.0066C41.0198 28.7871 40.951 28.5674 40.8057 28.4028C40.6602 28.2381 40.4521 28.1438 40.2337 28.1438H33.3375V23.145C33.3375 21.6381 34.1406 20.874 35.7247 20.874C35.9505 20.874 40.2337 20.874 40.2337 20.874C40.657 20.874 41 20.5273 41 20.0998V12.7799C41 12.3523 40.657 12.0057 40.2337 12.0057H34.0197C33.9759 12.0036 33.8785 12 33.7351 12C32.6569 12 28.9092 12.2138 25.9488 14.9653C22.6687 18.0144 23.1246 21.6652 23.2336 22.2982V28.1436H17.7663C17.343 28.1436 17 28.4902 17 28.9178V36.7905C17 37.2181 17.343 37.5648 17.7663 37.5648Z" fill="white"/>
</g>
</g>
<defs>
<clipPath id="clip0_74_6">
<rect width="58" height="58" rx="3" fill="white"/>
</clipPath>
</defs>
</svg>
