<svg width="59" height="58" viewBox="0 0 59 58" fill="none" xmlns="http://www.w3.org/2000/svg">
<rect width="58.0344" height="57.5633" rx="3" fill="#6E442E"/>
<path d="M29.3519 14.026C31.9351 14.026 34.5182 13.9573 37.0957 14.0432C41.2804 14.1808 43.8119 16.4906 43.9267 20.5945C44.0759 26.0338 44.0645 31.4788 43.9267 36.9182C43.8291 40.7927 41.2402 43.372 37.3654 43.4637C31.826 43.5898 26.2751 43.607 20.7299 43.4522C16.7575 43.3376 14.1399 40.5979 14.0711 36.643C13.9735 31.3929 13.9792 26.1427 14.0711 20.8925C14.1457 16.9434 16.7633 14.2782 20.7414 14.0776C23.6001 13.9343 26.476 14.049 29.3462 14.049C29.3462 14.049 29.3462 14.0375 29.3462 14.0318L29.3519 14.026ZM28.841 37.0901C34.2025 37.1188 37.5836 33.7314 37.5664 28.3608C37.5491 23.6494 34.2312 20.6919 29.3002 20.3881C23.9617 20.0557 20.5921 24.1882 20.6208 28.848C20.6495 33.8345 23.8928 37.0672 28.841 37.0958V37.0901Z" fill="white"/>
<path d="M35.6916 29.0547C35.6916 32.4109 32.6072 35.4941 29.3275 35.4144C26.1971 35.3348 22.9691 32.0412 22.9634 28.9182C22.9634 25.8009 26.1856 22.5073 29.3332 22.422C32.6933 22.331 35.6916 25.4653 35.6973 29.0604L35.6916 29.0547Z" fill="white"/>
</svg>
